<?xml version="1.0" encoding="utf-8"?>
<!-- Generator: Adobe Illustrator 24.0.0, SVG Export Plug-In . SVG Version: 6.00 Build 0)  -->
<svg version="1.1" id="Laag_1" xmlns="http://www.w3.org/2000/svg" xmlns:xlink="http://www.w3.org/1999/xlink" x="0px" y="0px"
	 viewBox="0 0 11.34 28.35" style="enable-background:new 0 0 11.34 28.35;" xml:space="preserve">
<style type="text/css">
	.st0{fill:#FDDCC2;}
	.st1{fill:#EE701D;}
	.st2{fill:#FAB60F;}
	.st3{fill:#A1A8A1;}
	.st4{fill:#E30613;}
	.st5{fill:#DEDEDE;}
	.st6{fill:#36A9E1;stroke:#F6F6F6;stroke-width:0.2888;stroke-miterlimit:10;}
	.st7{fill:#F7DA37;}
</style>
<polygon class="st0" points="5.38,27.97 4.49,16.11 6.64,16.08 "/>
<path class="st1" d="M5.51,18.85c0,0-2.33-4.96-0.72-5.54l1.62,0.04C6.4,13.35,8.07,13.59,5.51,18.85z"/>
<path class="st2" d="M5.53,17.17c0,0-1.64-3.58-0.74-3.86l1.62,0.04C6.4,13.35,7.34,13.47,5.53,17.17z"/>
<path class="st3" d="M3.78,12.25L4,13.02l3.14,0.02c0,0,0.19-0.41,0.25-0.66C7.46,12.12,3.78,12.25,3.78,12.25z"/>
<path class="st4" d="M7.33,12.18c0,0,1.11,0.28,1.25,1.28s0.18,1.42,0.18,1.42l0.19,0c0,0,0.63-2.24,0.71-2.72
	c0.08-0.48,0.02-0.94-0.25-1.24c-0.27-0.3-1.63-1.44-1.63-1.44L7.33,12.18z"/>
<path class="st4" d="M3.89,12.13c0,0-1.12,0.24-1.29,1.24c-0.17,1-0.22,1.41-0.22,1.41l-0.19,0c0,0-0.56-2.26-0.63-2.74
	c-0.07-0.48,0.01-0.94,0.29-1.23c0.28-0.29,1.67-1.39,1.67-1.39L3.89,12.13z"/>
<path class="st5" d="M7.39,12.38c0,0,1.4-5-0.22-8.84c0,0-1.25-0.53-3.02-0.12c0,0-1.57,4.91-0.37,8.83
	C3.78,12.25,5.56,12.38,7.39,12.38z"/>
<circle class="st6" cx="5.62" cy="6.75" r="1.11"/>
<path class="st4" d="M4.15,3.42c0,0,2.24-0.24,3.02,0.12c0,0-0.78-2.32-1.46-3.16C5.71,0.38,4.92,1.66,4.15,3.42z"/>
<path class="st4" d="M4.17,13.02c0,0-0.01,0.23,0.26,0.26c0.27,0.04,2.27,0.06,2.27,0.06s0.28-0.1,0.35-0.31L4.17,13.02z"/>
<path class="st7" d="M4.78,13.31c0,0-0.42,0.25,0.78,2.09c0,0,1.2-1.68,0.84-2.05L4.78,13.31z"/>
<path class="st4" d="M5.63,14.86l-0.15-0.02L5.46,9.87c0,0-0.08-0.24,0.13-0.3c0.21-0.06,0.19,0.3,0.19,0.3L5.63,14.86z"/>
</svg>
