<?xml version="1.0" encoding="utf-8"?>
<!-- Generator: Adobe Illustrator 24.0.0, SVG Export Plug-In . SVG Version: 6.00 Build 0)  -->
<svg version="1.1" id="Laag_1" xmlns="http://www.w3.org/2000/svg" xmlns:xlink="http://www.w3.org/1999/xlink" x="0px" y="0px"
	 viewBox="0 0 28.35 19.84" style="enable-background:new 0 0 28.35 19.84;" xml:space="preserve">
<style type="text/css">
	.st0{fill:#FFFFFF;}
</style>
<path class="st0" d="M22.45,5.34c-1.24-0.31-2.47-0.32-3.58-0.08c-0.83-1.67-2.56-3.06-4.78-3.61C10.5,0.75,7,2.37,6.28,5.27
	C6.25,5.38,6.23,5.48,6.21,5.59C3.54,5.7,1.28,7.19,0.72,9.45c-0.72,2.9,1.6,5.97,5.18,6.87c1.4,0.35,2.78,0.32,3.99-0.02
	c0.91,0.87,2.11,1.55,3.51,1.9c2.95,0.74,5.84-0.23,7.18-2.22c3.31,0.51,6.39-1.08,7.06-3.77C28.35,9.31,26.03,6.24,22.45,5.34z"/>
</svg>
